<svg xmlns="http://www.w3.org/2000/svg" viewBox="0 0 40 40"><circle cx="20" cy="20" r="18.83" style="fill:#fad9d0"/><path d="M20,40A20,20,0,1,1,40,20,20,20,0,0,1,20,40ZM20,2.35A17.65,17.65,0,1,0,37.65,20,17.67,17.67,0,0,0,20,2.35Z" style="fill:#595757"/><circle cx="14.22" cy="15.72" r="1.17" style="fill:#595757"/><circle cx="25.78" cy="15.72" r="1.17" style="fill:#595757"/><path d="M20,26.62a7.68,7.68,0,0,1-5.43-2.24,1.19,1.19,0,0,1,0-1.66,1.17,1.17,0,0,1,1.66,0,5.35,5.35,0,0,0,7.54,0,1.17,1.17,0,0,1,1.66,0,1.19,1.19,0,0,1,0,1.66A7.68,7.68,0,0,1,20,26.62Z" style="fill:#595757"/><path d="M0,0H24V24H0Z" style="fill:none"/></svg>