<?xml version="1.0" encoding="utf-8"?>
<!-- Generator: Adobe Illustrator 26.0.1, SVG Export Plug-In . SVG Version: 6.00 Build 0)  -->
<svg version="1.1" id="_x31_" xmlns="http://www.w3.org/2000/svg" xmlns:xlink="http://www.w3.org/1999/xlink" x="0px" y="0px"
	 viewBox="0 0 120 120" style="enable-background:new 0 0 120 120;" xml:space="preserve">
<style type="text/css">
	.st0{fill:#FAD9D0;}
	.st1{fill:#595757;}
</style>
<g>
	<circle class="st0" cx="60" cy="60" r="56.5"/>
	<path class="st1" d="M60,120C26.9,120,0,93.1,0,60C0,26.9,26.9,0,60,0s60,26.9,60,60C120,93.1,93.1,120,60,120z M60,7
		C30.8,7,7,30.8,7,60s23.8,53,53,53s53-23.8,53-53S89.2,7,60,7z"/>
	<g>
		<g>
			<circle class="st1" cx="42.7" cy="47.2" r="3.5"/>
		</g>
		<g>
			<circle class="st1" cx="77.3" cy="47.2" r="3.5"/>
		</g>
	</g>
	<g>
		<path class="st1" d="M60,79.9c-5.9,0-11.8-2.2-16.3-6.7c-1.4-1.4-1.4-3.6,0-5c1.4-1.4,3.6-1.4,5,0c6.2,6.2,16.4,6.2,22.6,0
			c1.4-1.4,3.6-1.4,5,0c1.4,1.4,1.4,3.6,0,5C71.8,77.6,65.9,79.9,60,79.9z"/>
	</g>
</g>
</svg>
