<svg id="圖層_1" data-name="圖層 1" xmlns="http://www.w3.org/2000/svg" viewBox="0 0 100 100"><defs><style>.cls-1{fill:#595757;}.cls-2{fill:#fad9d0;}</style></defs><circle class="cls-1" cx="50" cy="50" r="49.5"/><path class="cls-2" d="M62.09,40a3.08,3.08,0,0,1-2.19-.91,14,14,0,0,0-19.8,0,3.09,3.09,0,0,1-4.37-4.36,20.18,20.18,0,0,1,28.54,0,3.09,3.09,0,0,1,0,4.36A3,3,0,0,1,62.09,40Z"/><path class="cls-2" d="M77.2,69.34a3.07,3.07,0,0,1-2.18-.9,9.61,9.61,0,0,0-13.57,0,3.09,3.09,0,0,1-4.37-4.37,15.8,15.8,0,0,1,22.3,0,3.09,3.09,0,0,1-2.18,5.27Z"/><path class="cls-2" d="M40.74,69.34a3.11,3.11,0,0,1-2.19-.9,9.6,9.6,0,0,0-13.57,0,3.09,3.09,0,0,1-4.36-4.37,15.76,15.76,0,0,1,22.3,0,3.09,3.09,0,0,1-2.18,5.27Z"/></svg>